<svg width="323" height="178" viewBox="0 0 323 178" fill="none" xmlns="http://www.w3.org/2000/svg">
<path d="M32.3499 73.949C32.2139 72.453 32.0439 70.175 31.8399 67.115C31.6359 64.055 31.4489 60.519 31.2789 56.507C31.1089 52.495 30.9389 48.296 30.7689 43.91C30.6329 39.49 30.5139 35.155 30.4119 30.905C30.3439 26.621 30.3099 22.711 30.3099 19.175C30.3099 16.965 30.3269 14.959 30.3609 13.157C30.4289 11.321 30.5139 9.808 30.6159 8.618C30.9219 8.584 31.4999 8.53299 32.3499 8.465C33.2339 8.397 34.2199 8.346 35.3079 8.31199C36.3959 8.244 37.4499 8.193 38.4699 8.159C39.5239 8.125 40.3909 8.108 41.0709 8.108C40.9349 9.978 40.8329 12.12 40.7649 14.534C40.7309 16.914 40.7139 19.209 40.7139 21.419C40.7139 24.547 40.7479 27.522 40.8159 30.344C40.8839 33.132 40.9349 34.934 40.9689 35.75C41.7169 35.682 42.7709 35.614 44.1309 35.546C45.4909 35.444 46.9869 35.359 48.6189 35.291C50.2849 35.189 51.9339 35.104 53.5659 35.036C55.1979 34.934 56.6939 34.866 58.0539 34.832C59.4139 34.764 60.4509 34.73 61.1649 34.73C61.2329 33.268 61.3009 31.398 61.3689 29.12C61.4369 26.842 61.5219 24.411 61.6239 21.827C61.7259 19.209 61.8279 16.642 61.9299 14.126C62.0659 11.61 62.1849 9.4 62.2869 7.496C62.7629 7.462 63.3069 7.445 63.9189 7.445C64.5649 7.411 65.2279 7.39399 65.9079 7.39399C67.2679 7.39399 68.6279 7.428 69.9879 7.496C71.3479 7.564 72.3679 7.649 73.0479 7.751C72.8439 9.145 72.6399 11.117 72.4359 13.667C72.2659 16.217 72.0789 19.141 71.8749 22.439C71.7049 25.703 71.5519 29.171 71.4159 32.843C71.2799 36.515 71.1609 40.187 71.0589 43.859C70.9569 47.531 70.8889 51.033 70.8549 54.365C70.7869 57.017 70.7359 59.584 70.7019 62.066C70.6679 64.514 70.6339 66.741 70.5999 68.747C70.5999 70.753 70.6169 72.402 70.6509 73.694C70.1069 73.762 69.2909 73.83 68.2029 73.898C67.1489 73.932 65.9929 73.966 64.7349 74C63.5109 74 62.3209 74 61.1649 74C61.1649 71.858 61.1649 69.427 61.1649 66.707C61.1649 63.987 61.1479 61.233 61.1139 58.445C61.1139 55.623 61.0969 52.971 61.0629 50.489C61.0629 48.007 61.0629 45.916 61.0629 44.216C60.3829 44.25 59.3799 44.284 58.0539 44.318C56.7279 44.318 55.2489 44.352 53.6169 44.42C52.0189 44.454 50.4039 44.488 48.7719 44.522C47.1739 44.556 45.7119 44.59 44.3859 44.624C43.0939 44.624 42.1079 44.624 41.4279 44.624C41.5299 47.106 41.6489 49.894 41.7849 52.988C41.9549 56.082 42.1079 59.108 42.2439 62.066C42.4139 64.99 42.5669 67.506 42.7029 69.614C42.8389 71.688 42.9069 72.963 42.9069 73.439C42.4309 73.507 41.7509 73.575 40.8669 73.643C39.9829 73.711 38.9969 73.779 37.9089 73.847C36.8549 73.881 35.8349 73.915 34.8489 73.949C33.8629 73.949 33.0299 73.949 32.3499 73.949ZM110.979 75.581C102.071 75.581 95.4921 73.099 91.2421 68.135C86.9921 63.171 84.8671 56.031 84.8671 46.715C84.8671 40.833 85.9551 35.869 88.1311 31.823C90.3411 27.777 93.4011 24.7 97.3111 22.592C101.255 20.484 105.845 19.43 111.081 19.43C116.623 19.43 121.196 20.722 124.8 23.306C128.404 25.856 131.073 29.426 132.807 34.016C134.575 38.572 135.459 43.876 135.459 49.928C135.459 55.13 134.49 59.652 132.552 63.494C130.614 67.302 127.809 70.277 124.137 72.419C120.499 74.527 116.113 75.581 110.979 75.581ZM110.571 66.452C113.325 66.452 115.688 65.942 117.66 64.922C119.632 63.902 121.23 62.542 122.454 60.842C123.678 59.108 124.579 57.17 125.157 55.028C125.769 52.886 126.075 50.693 126.075 48.449C126.075 44.369 125.514 40.731 124.392 37.535C123.27 34.339 121.57 31.84 119.292 30.038C117.014 28.202 114.107 27.284 110.571 27.284C107.103 27.284 104.196 28.117 101.85 29.783C99.5041 31.449 97.7361 33.744 96.5461 36.668C95.3901 39.592 94.8121 42.941 94.8121 46.715C94.8121 52.529 96.1551 57.272 98.8411 60.944C101.527 64.616 105.437 66.452 110.571 66.452ZM181.267 64.514C180.757 66.146 179.975 67.863 178.921 69.665C177.867 71.433 176.405 72.929 174.535 74.153C172.665 75.411 170.251 76.04 167.293 76.04C163.485 76.04 160.459 75.207 158.215 73.541C156.005 71.875 154.424 69.682 153.472 66.962C152.52 64.242 152.044 61.284 152.044 58.088C152.044 56.422 152.061 54.45 152.095 52.172C152.163 49.894 152.231 47.531 152.299 45.083C152.367 42.635 152.435 40.272 152.503 37.994C152.605 35.682 152.69 33.659 152.758 31.925C152.826 30.157 152.877 28.848 152.911 27.998C149.579 28.338 146.689 28.712 144.241 29.12C141.827 29.494 140.28 29.783 139.6 29.987C139.396 28.899 139.226 27.76 139.09 26.57C138.988 25.346 138.903 24.241 138.835 23.255C138.801 22.269 138.784 21.606 138.784 21.266C140.688 20.994 142.898 20.705 145.414 20.399C147.964 20.093 150.48 19.855 152.962 19.685C152.996 18.359 153.013 16.727 153.013 14.789C153.013 12.817 153.013 10.964 153.013 9.22999C152.979 7.768 152.911 6.357 152.809 4.997C152.707 3.603 152.622 2.447 152.554 1.52899L162.142 0.967998C162.21 1.478 162.278 2.702 162.346 4.64C162.448 6.544 162.499 8.856 162.499 11.576C162.499 12.596 162.499 13.837 162.499 15.299C162.499 16.727 162.499 18.002 162.499 19.124C163.519 19.056 164.777 18.988 166.273 18.92C167.769 18.852 168.976 18.818 169.894 18.818C171.492 18.784 173.022 18.767 174.484 18.767C175.946 18.767 177.204 18.784 178.258 18.818C179.312 18.852 179.958 18.886 180.196 18.92C180.366 19.838 180.468 21.113 180.502 22.745C180.57 24.377 180.604 25.737 180.604 26.825C180.264 26.791 179.091 26.774 177.085 26.774C175.113 26.74 173.158 26.74 171.22 26.774C169.826 26.808 168.296 26.876 166.63 26.978C164.964 27.046 163.536 27.114 162.346 27.182C162.312 28.066 162.244 29.375 162.142 31.109C162.074 32.843 162.006 34.798 161.938 36.974C161.87 39.116 161.802 41.309 161.734 43.553C161.666 45.763 161.615 47.837 161.581 49.775C161.547 51.679 161.53 53.226 161.53 54.416C161.53 56.558 161.649 58.598 161.887 60.536C162.159 62.474 162.771 64.072 163.723 65.33C164.709 66.554 166.256 67.166 168.364 67.166C169.792 67.166 170.948 66.656 171.832 65.636C172.716 64.616 173.396 63.443 173.872 62.117C174.382 60.791 174.756 59.686 174.994 58.802C175.3 59.142 175.742 59.601 176.32 60.179C176.932 60.723 177.578 61.301 178.258 61.913C178.972 62.525 179.601 63.069 180.145 63.545C180.723 64.021 181.097 64.344 181.267 64.514ZM235.915 62.627C235.235 63.579 234.232 64.684 232.906 65.942C231.58 67.166 229.931 68.356 227.959 69.512C225.987 70.634 223.692 71.569 221.074 72.317C218.456 73.065 215.498 73.439 212.2 73.439C207.1 73.439 202.629 72.402 198.787 70.328C194.945 68.254 191.97 65.228 189.862 61.25C187.754 57.238 186.7 52.359 186.7 46.613C186.7 41.105 187.839 36.328 190.117 32.282C192.429 28.236 195.591 25.108 199.603 22.898C203.615 20.688 208.222 19.583 213.424 19.583C219.952 19.583 225.035 21.572 228.673 25.55C232.345 29.528 234.385 34.866 234.793 41.564C234.861 42.652 234.895 43.706 234.895 44.726C234.895 45.712 234.844 46.732 234.742 47.786C234.3 47.752 233.382 47.718 231.988 47.684C230.628 47.616 229.03 47.565 227.194 47.531C225.358 47.463 223.505 47.412 221.635 47.378C219.799 47.31 218.218 47.276 216.892 47.276C213.458 47.276 209.939 47.446 206.335 47.786C202.731 48.126 199.518 48.517 196.696 48.959C196.73 49.843 196.815 50.71 196.951 51.56C197.087 52.41 197.257 53.226 197.461 54.008C198.039 56.082 199.093 57.884 200.623 59.414C202.153 60.91 203.972 62.066 206.08 62.882C208.222 63.698 210.483 64.106 212.863 64.106C215.379 64.106 217.572 63.732 219.442 62.984C221.312 62.236 222.91 61.318 224.236 60.23C225.596 59.142 226.684 58.105 227.5 57.119C228.35 56.133 228.996 55.402 229.438 54.926C229.642 55.096 230.033 55.47 230.611 56.048C231.223 56.592 231.869 57.255 232.549 58.037C233.263 58.819 233.926 59.618 234.538 60.434C235.184 61.216 235.643 61.947 235.915 62.627ZM196.849 42.125C199.297 41.717 202.17 41.36 205.468 41.054C208.8 40.748 212.574 40.595 216.79 40.595C219 40.595 220.87 40.629 222.4 40.697C223.964 40.731 225.052 40.782 225.664 40.85C225.664 39.728 225.528 38.538 225.256 37.28C224.882 35.58 224.202 33.931 223.216 32.333C222.23 30.735 220.887 29.409 219.187 28.355C217.521 27.267 215.413 26.723 212.863 26.723C209.939 26.723 207.27 27.352 204.856 28.61C202.476 29.834 200.572 31.602 199.144 33.914C197.716 36.192 196.951 38.929 196.849 42.125ZM270.825 70.736C270.043 71.858 268.649 72.98 266.643 74.102C264.637 75.258 262.24 75.836 259.452 75.836C255.542 75.836 252.635 74.816 250.731 72.776C248.827 70.702 247.569 67.846 246.957 64.208C246.379 60.57 246.09 56.422 246.09 51.764C246.09 48.772 246.124 45.508 246.192 41.972C246.26 38.436 246.345 34.781 246.447 31.007C246.583 27.233 246.719 23.527 246.855 19.889C246.991 16.217 247.127 12.783 247.263 9.587C247.399 6.357 247.535 3.535 247.671 1.121C249.235 0.984997 250.663 0.916996 251.955 0.916996C252.839 0.916996 253.723 0.950995 254.607 1.01899C255.491 1.087 256.392 1.172 257.31 1.27399C257.174 3.72199 257.021 6.62899 256.851 9.99499C256.681 13.327 256.494 16.88 256.29 20.654C256.12 24.428 255.967 28.202 255.831 31.976C255.695 35.75 255.576 39.269 255.474 42.533C255.372 45.797 255.321 48.585 255.321 50.897C255.321 53.481 255.457 55.98 255.729 58.394C256.001 60.774 256.579 62.729 257.463 64.259C258.347 65.789 259.69 66.554 261.492 66.554C262.886 66.554 263.957 66.214 264.705 65.534C265.453 64.854 266.099 63.987 266.643 62.933C266.847 63.205 267.153 63.715 267.561 64.463C268.003 65.177 268.445 65.993 268.887 66.911C269.363 67.795 269.771 68.594 270.111 69.308C270.485 70.022 270.723 70.498 270.825 70.736ZM11.5267 176.765C10.8807 176.765 10.0647 176.748 9.07873 176.714C8.12674 176.68 7.12374 176.629 6.06973 176.561C5.01573 176.527 4.01273 176.476 3.06073 176.408C2.10873 176.374 1.30973 176.323 0.663735 176.255C1.00373 174.487 1.47973 172.005 2.09173 168.809C2.73773 165.613 3.50273 161.992 4.38673 157.946C5.27073 153.866 6.20573 149.599 7.19173 145.145C8.17773 140.691 9.18073 136.271 10.2007 131.885C11.2547 127.465 12.2577 123.317 13.2097 119.441C14.1617 115.565 15.0117 112.233 15.7597 109.445C17.8337 109.139 20.3497 108.833 23.3077 108.527C26.2997 108.221 29.3427 108.068 32.4367 108.068C33.7627 108.068 35.1397 108.102 36.5677 108.17C37.9957 108.238 39.3557 108.357 40.6477 108.527C41.2937 111.519 41.9397 115.089 42.5857 119.237C43.2657 123.385 43.9117 128.213 44.5237 133.721C45.1697 139.229 45.7987 145.485 46.4107 152.489C47.0567 159.459 47.6857 167.296 48.2977 176C47.5157 176.136 46.4787 176.255 45.1867 176.357C43.8947 176.493 42.5517 176.595 41.1577 176.663C39.7977 176.731 38.5397 176.765 37.3837 176.765C37.3157 175.779 37.2477 174.487 37.1797 172.889C37.1117 171.291 37.0267 169.523 36.9247 167.585C36.8227 165.613 36.7207 163.658 36.6187 161.72C36.5167 159.748 36.4147 157.929 36.3127 156.263C36.2107 154.597 36.1257 153.237 36.0577 152.183C34.9697 152.217 33.6437 152.268 32.0797 152.336C30.5157 152.404 28.8667 152.506 27.1327 152.642C25.4327 152.744 23.7837 152.863 22.1857 152.999C20.6217 153.135 19.2617 153.271 18.1057 153.407C16.9497 153.543 16.1847 153.645 15.8107 153.713C15.1987 156.603 14.6037 159.527 14.0257 162.485C13.4477 165.409 12.9377 168.129 12.4957 170.645C12.0537 173.127 11.7307 175.167 11.5267 176.765ZM17.1877 144.941C18.4457 144.669 20.1797 144.414 22.3897 144.176C24.6337 143.938 26.9627 143.734 29.3767 143.564C31.8247 143.394 33.9497 143.275 35.7517 143.207C35.6837 142.153 35.5647 140.47 35.3947 138.158C35.2247 135.846 35.0207 133.313 34.7827 130.559C34.5447 127.805 34.3067 125.204 34.0687 122.756C33.8647 120.274 33.6437 118.353 33.4057 116.993C32.6237 116.993 31.5017 117.044 30.0397 117.146C28.6117 117.214 27.2177 117.316 25.8577 117.452C24.5317 117.554 23.5967 117.639 23.0527 117.707C22.8487 118.591 22.5427 119.934 22.1347 121.736C21.7267 123.504 21.2507 125.629 20.7067 128.111C20.1627 130.559 19.5847 133.228 18.9727 136.118C18.3947 138.974 17.7997 141.915 17.1877 144.941ZM91.8071 120.359C93.3711 120.631 94.8331 120.954 96.1931 121.328C97.5531 121.702 98.7091 122.042 99.6611 122.348C100.613 122.62 101.191 122.807 101.395 122.909C100.817 125.187 99.9841 128.06 98.8961 131.528C97.8081 134.962 96.5671 138.685 95.1731 142.697C93.8131 146.709 92.3681 150.789 90.8381 154.937C89.3421 159.051 87.8631 162.961 86.4011 166.667C84.9731 170.373 83.6471 173.586 82.4231 176.306C81.3351 176.51 79.8391 176.612 77.9351 176.612C77.1191 176.612 76.3201 176.578 75.5381 176.51C74.7561 176.442 74.0931 176.374 73.5491 176.306C71.6111 172.294 69.7241 168.027 67.8881 163.505C66.0521 158.949 64.2841 154.308 62.5841 149.582C60.8841 144.856 59.2861 140.198 57.7901 135.608C56.3281 131.018 54.9851 126.683 53.7611 122.603C54.2031 122.467 54.8151 122.314 55.5971 122.144C56.3791 121.94 57.2121 121.736 58.0961 121.532C58.9801 121.294 59.8471 121.073 60.6971 120.869C61.5471 120.665 62.2611 120.478 62.8391 120.308C63.3831 122.484 64.1481 125.17 65.1341 128.366C66.1201 131.528 67.2081 134.894 68.3981 138.464C69.6221 142.034 70.8461 145.553 72.0701 149.021C73.3281 152.455 74.5011 155.583 75.5891 158.405C76.6771 161.193 77.5611 163.386 78.2411 164.984L77.5271 165.137C78.4111 163.029 79.3631 160.564 80.3831 157.742C81.4031 154.886 82.4571 151.826 83.5451 148.562C84.6671 145.298 85.7551 142 86.8091 138.668C87.8631 135.302 88.8151 132.055 89.6651 128.927C90.5151 125.765 91.2291 122.909 91.8071 120.359ZM130.966 177.071C126.716 177.071 122.857 176.51 119.389 175.388C115.955 174.232 113.218 172.396 111.178 169.88C109.138 167.33 108.118 163.947 108.118 159.731C108.118 155.685 109.257 152.336 111.535 149.684C113.813 147.032 116.89 145.077 120.766 143.819C124.676 142.527 129.045 141.881 133.873 141.881C136.117 141.881 138.31 142.051 140.452 142.391C142.594 142.697 144.447 143.071 146.011 143.513C147.575 143.921 148.629 144.244 149.173 144.482C149.071 143.36 148.867 142.221 148.561 141.065C148.289 139.875 147.864 138.838 147.286 137.954C145.994 135.676 144.107 133.806 141.625 132.344C139.177 130.848 136.1 130.1 132.394 130.1C128.484 130.1 125.169 130.95 122.449 132.65C119.729 134.316 117.689 136.305 116.329 138.617L108.067 133.16C109.563 130.95 111.535 128.995 113.983 127.295C116.431 125.595 119.253 124.252 122.449 123.266C125.645 122.28 129.079 121.787 132.751 121.787C138.463 121.787 143.189 122.875 146.929 125.051C150.669 127.227 153.406 130.1 155.14 133.67C156.024 135.472 156.721 137.444 157.231 139.586C157.741 141.728 158.047 144.38 158.149 147.542C158.217 150.874 158.285 153.713 158.353 156.059C158.455 158.405 158.557 160.428 158.659 162.128C158.829 164.338 159.169 165.766 159.679 166.412C160.189 167.058 160.92 167.381 161.872 167.381C162.96 167.381 163.878 166.922 164.626 166.004C165.374 165.052 165.799 163.726 165.901 162.026L170.797 167.432C170.593 170.288 169.59 172.464 167.788 173.96C165.986 175.456 163.878 176.204 161.464 176.204C159.56 176.204 157.877 175.847 156.415 175.133C154.987 174.385 153.848 173.433 152.998 172.277C152.148 171.121 151.655 169.931 151.519 168.707C150.839 169.965 149.513 171.24 147.541 172.532C145.603 173.824 143.206 174.912 140.35 175.796C137.528 176.646 134.4 177.071 130.966 177.071ZM132.802 169.064C135.012 169.064 137.171 168.724 139.279 168.044C141.387 167.364 143.325 166.463 145.093 165.341C146.895 164.219 148.374 162.978 149.53 161.618C149.496 159.51 149.496 157.64 149.53 156.008C149.564 154.342 149.615 152.812 149.683 151.418C148.697 151.078 146.81 150.636 144.022 150.092C141.234 149.514 138.089 149.225 134.587 149.225C131.561 149.225 128.807 149.633 126.325 150.449C123.877 151.231 121.922 152.37 120.46 153.866C119.032 155.362 118.318 157.164 118.318 159.272C118.318 161.822 118.93 163.811 120.154 165.239C121.412 166.633 123.129 167.619 125.305 168.197C127.481 168.775 129.98 169.064 132.802 169.064ZM201.597 172.736C200.815 173.858 199.421 174.98 197.415 176.102C195.409 177.258 193.012 177.836 190.224 177.836C186.314 177.836 183.407 176.816 181.503 174.776C179.599 172.702 178.341 169.846 177.729 166.208C177.151 162.57 176.862 158.422 176.862 153.764C176.862 150.772 176.896 147.508 176.964 143.972C177.032 140.436 177.117 136.781 177.219 133.007C177.355 129.233 177.491 125.527 177.627 121.889C177.763 118.217 177.899 114.783 178.035 111.587C178.171 108.357 178.307 105.535 178.443 103.121C180.007 102.985 181.435 102.917 182.727 102.917C183.611 102.917 184.495 102.951 185.379 103.019C186.263 103.087 187.164 103.172 188.082 103.274C187.946 105.722 187.793 108.629 187.623 111.995C187.453 115.327 187.266 118.88 187.062 122.654C186.892 126.428 186.739 130.202 186.603 133.976C186.467 137.75 186.348 141.269 186.246 144.533C186.144 147.797 186.093 150.585 186.093 152.897C186.093 155.481 186.229 157.98 186.501 160.394C186.773 162.774 187.351 164.729 188.235 166.259C189.119 167.789 190.462 168.554 192.264 168.554C193.658 168.554 194.729 168.214 195.477 167.534C196.225 166.854 196.871 165.987 197.415 164.933C197.619 165.205 197.925 165.715 198.333 166.463C198.775 167.177 199.217 167.993 199.659 168.911C200.135 169.795 200.543 170.594 200.883 171.308C201.257 172.022 201.495 172.498 201.597 172.736ZM233.499 177.581C224.591 177.581 218.012 175.099 213.762 170.135C209.512 165.171 207.387 158.031 207.387 148.715C207.387 142.833 208.475 137.869 210.651 133.823C212.861 129.777 215.921 126.7 219.831 124.592C223.775 122.484 228.365 121.43 233.601 121.43C239.143 121.43 243.716 122.722 247.32 125.306C250.924 127.856 253.593 131.426 255.327 136.016C257.095 140.572 257.979 145.876 257.979 151.928C257.979 157.13 257.01 161.652 255.072 165.494C253.134 169.302 250.329 172.277 246.657 174.419C243.019 176.527 238.633 177.581 233.499 177.581ZM233.091 168.452C235.845 168.452 238.208 167.942 240.18 166.922C242.152 165.902 243.75 164.542 244.974 162.842C246.198 161.108 247.099 159.17 247.677 157.028C248.289 154.886 248.595 152.693 248.595 150.449C248.595 146.369 248.034 142.731 246.912 139.535C245.79 136.339 244.09 133.84 241.812 132.038C239.534 130.202 236.627 129.284 233.091 129.284C229.623 129.284 226.716 130.117 224.37 131.783C222.024 133.449 220.256 135.744 219.066 138.668C217.91 141.592 217.332 144.941 217.332 148.715C217.332 154.529 218.675 159.272 221.361 162.944C224.047 166.616 227.957 168.452 233.091 168.452ZM279.392 176.663C278.746 176.663 277.964 176.663 277.046 176.663C276.128 176.697 275.21 176.697 274.292 176.663C273.442 176.629 272.473 176.578 271.385 176.51C270.297 176.476 269.498 176.425 268.988 176.357C269.328 173.535 269.617 170.458 269.855 167.126C270.127 163.76 270.348 159.986 270.518 155.804C270.688 151.588 270.824 146.811 270.926 141.473C271.028 136.101 271.079 129.998 271.079 123.164C271.895 123.028 272.864 122.926 273.986 122.858C275.142 122.756 276.315 122.705 277.505 122.705C278.253 122.705 279.001 122.722 279.749 122.756C280.531 122.79 281.211 122.858 281.789 122.96C281.823 123.334 281.84 124.014 281.84 125C281.874 125.986 281.874 127.074 281.84 128.264C281.84 129.454 281.84 130.508 281.84 131.426C283.098 130.032 284.883 128.604 287.195 127.142C289.507 125.68 292.091 124.456 294.947 123.47C297.803 122.45 300.676 121.94 303.566 121.94C308.734 121.94 312.661 122.977 315.347 125.051C318.033 127.091 319.852 130.117 320.804 134.129C321.79 138.141 322.283 143.122 322.283 149.072C322.283 151.384 322.215 154.002 322.079 156.926C321.977 159.85 321.79 162.944 321.518 166.208C321.28 169.472 320.957 172.787 320.549 176.153C320.073 176.221 319.342 176.272 318.356 176.306C317.404 176.374 316.384 176.408 315.296 176.408C314.208 176.408 313.171 176.391 312.185 176.357C311.199 176.323 310.417 176.255 309.839 176.153C310.281 173.263 310.689 170.254 311.063 167.126C311.437 163.964 311.743 160.836 311.981 157.742C312.219 154.614 312.338 151.673 312.338 148.919C312.338 145.383 312.066 142.289 311.522 139.637C311.012 136.985 309.975 134.928 308.411 133.466C306.881 132.004 304.62 131.273 301.628 131.273C298.534 131.273 295.695 131.783 293.111 132.803C290.527 133.823 288.266 135.03 286.328 136.424C284.424 137.818 282.877 139.059 281.687 140.147C281.551 145.893 281.347 151.163 281.075 155.957C280.803 160.751 280.514 164.916 280.208 168.452C279.902 171.988 279.63 174.725 279.392 176.663Z" fill="#FE9460"/>
</svg>
